<svg aria-label="A chart." style="overflow: hidden;" height="300"
                    width="450">
                    <defs id="defs"></defs>

                        
                <path fill="darkgray" stroke-width="1" stroke="darkgray"
					d="M150,122 L150,64 A90,60,0,0,1,235.59508647,105.45898034 M235.59508647,105.45898034 L150,122"></path>
                        
                <path fill="darkgray" stroke-width="1" stroke="darkgray"
					d="M150,122 L235.59508647,105.45898034 A90,60,0,0,1,202.90067271,172.54101966 M202.90067271,172.54101966 L150,122"></path>
                        
                <path fill="darkgray" stroke-width="1" stroke="darkgray"
					d="M150,122 L202.90067271,172.54101966 A90,60,0,0,1,97.09932729,172.54101966 M97.09932729,172.54101966 L150,122"></path>
                        
                <path fill="darkgray" stroke-width="1" stroke="darkgray"
					d="M150,122 L97.09932729,172.54101966 A90,60,0,0,1,64.40491353,105.45898034 M64.40491353,105.45898034 L150,122"></path>
                        
                <path fill="darkgray" stroke-width="1" stroke="darkgray"
					d="M150,122 L64.40491353,105.45898034 A90,60,0,0,1,150,64 M150,64 L150,122"></path>
            
            <path fill="darkgray" stroke-width="1" stroke="darkgray"
				 d="M150,122 L150,64 L150,44 L150,102 L150,122 "></path>


            
            <path fill="darkgreen" stroke-width="1" stroke="darkgreen"
				 d="M150,118 L150,56 L150,36 L150,98 L150,118 "></path>

            
            <path fill="darkred" stroke-width="1" stroke="darkred"
				 d="M150,118 L150,56 L150,36 L150,98 L150,118 "></path>

            
            <path fill="darkgray" stroke-width="1" stroke="darkgray"
				 d="M150,122 L150,64 L150,44 L150,102 L150,122 "></path>

            
            <path fill="goldenrod" stroke-width="1" stroke="goldenrod"
				 d="M150,118 L150,56 L150,36 L150,98 L150,118 "></path>

                        
                <path fill="silver" stroke-width="1" stroke="silver"
					d="M150,102 L150,44 A90,60,0,0,1,235.59508647,85.45898034 M235.59508647,85.45898034 L150,102"></path>
                        
                <path fill="silver" stroke-width="1" stroke="silver"
					d="M150,102 L235.59508647,85.45898034 A90,60,0,0,1,202.90067271,152.54101966 M202.90067271,152.54101966 L150,102"></path>
                        
                <path fill="silver" stroke-width="1" stroke="silver"
					d="M150,102 L202.90067271,152.54101966 A90,60,0,0,1,97.09932729,152.54101966 M97.09932729,152.54101966 L150,102"></path>
                        
                <path fill="silver" stroke-width="1" stroke="silver"
					d="M150,102 L97.09932729,152.54101966 A90,60,0,0,1,64.40491353,85.45898034 M64.40491353,85.45898034 L150,102"></path>
                        
                <path fill="silver" stroke-width="1" stroke="silver"
					d="M150,102 L64.40491353,85.45898034 A90,60,0,0,1,150,44 M150,44 L150,102"></path>
			            <text x="280"
			            	 y="67.5"
			            	 font-weight = "bold"
			            	 font-size = "14">0% (0) Passed</text>
			           <circle cx="270"
			            cy="62.5"
			             r="5" stroke="darkgreen" stroke-width="1" fill="green" />
			            <text x="280"
			            	 y="97.5"
			            	 font-weight = "bold"
			            	 font-size = "14">0% (0) Failed</text>
			           <circle cx="270"
			            cy="92.5"
			             r="5" stroke="darkred" stroke-width="1" fill="red" />
			            <text x="280"
			            	 y="127.5"
			            	 font-weight = "bold"
			            	 font-size = "14">100% (1) Undefined</text>
			           <circle cx="270"
			            cy="122.5"
			             r="5" stroke="darkgray" stroke-width="1" fill="silver" />
			            <text x="280"
			            	 y="157.5"
			            	 font-weight = "bold"
			            	 font-size = "14">0% (0) Known</text>
			           <circle cx="270"
			            cy="152.5"
			             r="5" stroke="goldenrod" stroke-width="1" fill="gold" />
                    </svg>